<?xml version="1.0" standalone="no"?>
<!DOCTYPE svg PUBLIC "-//W3C//DTD SVG 20010904//EN"
 "http://www.w3.org/TR/2001/REC-SVG-20010904/DTD/svg10.dtd">
<svg version="1.0" xmlns="http://www.w3.org/2000/svg"
 width="500.000000pt" height="500.000000pt" viewBox="0 0 500.000000 500.000000"
 preserveAspectRatio="xMidYMid meet">

<g transform="translate(0.000000,500.000000) scale(0.100000,-0.100000)"
fill="#1a1c27" stroke="#1a1c27" stroke-width="80">
<path d="M2302 4369 c-15 -5 -34 -32 -53 -74 -36 -81 -41 -110 -16 -110 13 0
24 15 38 54 35 100 -35 91 689 91 644 0 660 -1 660 -35 0 -6 -17 -41 -37 -79
-21 -37 -52 -93 -68 -124 -28 -52 -107 -191 -208 -367 -22 -38 -70 -124 -106
-190 -69 -123 -111 -197 -236 -415 -39 -69 -75 -133 -78 -143 -4 -10 -27 -52
-52 -93 -77 -126 -145 -259 -145 -283 0 -12 13 -36 29 -52 l29 -29 189 0 c194
0 213 -4 213 -40 0 -9 -15 -34 -33 -56 -18 -21 -51 -62 -73 -90 -21 -28 -129
-163 -239 -299 -110 -137 -217 -271 -238 -298 -21 -27 -62 -77 -90 -112 -109
-131 -202 -248 -211 -264 -5 -9 -20 -28 -33 -43 -25 -26 -24 -48 0 -48 14 0
80 78 243 284 60 77 132 167 159 200 28 34 64 79 80 101 16 22 52 67 80 99 27
33 68 83 90 111 22 29 94 119 160 201 66 81 128 161 137 178 20 34 15 71 -13
101 -18 18 -36 20 -217 25 -192 5 -222 9 -222 32 0 6 29 61 64 122 35 61 81
143 102 181 20 39 56 102 79 140 23 39 59 102 79 140 21 39 62 111 90 160 29
50 88 153 131 230 105 188 244 436 322 570 81 141 84 199 12 224 -40 14 -1273
14 -1307 0z"/>
<path d="M2131 4008 c-29 -65 -130 -311 -171 -418 -20 -52 -59 -147 -85 -210
-26 -63 -65 -158 -85 -210 -21 -52 -62 -156 -93 -230 -103 -252 -149 -365
-222 -545 -40 -99 -89 -220 -110 -269 -31 -73 -36 -94 -28 -120 15 -53 31 -56
341 -56 176 0 291 -4 303 -10 31 -17 34 -9 -106 -420 -41 -118 -80 -237 -88
-265 -8 -27 -44 -133 -79 -235 -113 -322 -115 -334 -67 -374 17 -14 37 -26 45
-26 26 0 70 28 89 56 10 16 46 61 79 101 34 41 71 88 84 106 13 18 51 66 85
107 83 100 109 138 102 150 -13 21 -33 5 -107 -88 -43 -53 -98 -122 -123 -152
-25 -30 -70 -86 -99 -125 -65 -85 -89 -108 -112 -103 -44 8 -40 25 96 424 72
214 145 430 160 479 15 50 47 146 71 213 40 116 42 125 28 150 -27 49 -43 52
-350 52 -241 0 -289 2 -299 15 -14 17 -8 48 24 120 12 27 33 77 45 110 13 33
58 146 102 252 43 105 79 195 79 200 0 4 19 51 41 103 53 122 232 562 269 660
15 41 48 122 73 180 86 201 158 392 153 406 -10 25 -26 15 -45 -28z"/>
</g>
</svg>
